<?xml version="1.0" encoding="UTF-8" standalone="no"?>
<svg width="600px" height="150px" viewBox="0 0 600 150" version="1.1" xmlns="http://www.w3.org/2000/svg" xmlns:xlink="http://www.w3.org/1999/xlink">
    <!-- Generator: Sketch Beta 3.6 (26298) - http://www.bohemiancoding.com/sketch -->
    <title>Artboard 1</title>
    <desc>Created with Sketch Beta.</desc>
    <defs></defs>
    <g id="assets" stroke="none" stroke-width="1" fill="none" fill-rule="evenodd">
        <g id="Artboard-1" fill="#000000">
            <path d="M82.4351012,85.056 L75.0019468,85.056 C75.0019468,85.056 72.142109,83.5974545 68.5436966,82.9632727 L68.5436966,81.7854545 C68.5436966,80.7854545 69.3457201,79.9672727 70.3259712,79.9672727 L80.6528266,79.9672727 C81.6330776,79.9672727 82.4351012,80.7854545 82.4351012,81.7854545 L82.4351012,85.056 L82.4351012,85.056 Z M64.0997731,118.575636 C55.5854909,118.575636 48.6830979,111.534545 48.6830979,102.848364 C48.6830979,94.1625455 55.5854909,87.1210909 64.0997731,87.1210909 C72.6144117,87.1210909 79.5164483,94.1625455 79.5164483,102.848364 C79.5164483,111.534545 72.6144117,118.575636 64.0997731,118.575636 L64.0997731,118.575636 Z M86.722541,85.056 L85.5594286,85.056 L85.5594286,80.2727273 C85.5594286,78.4727273 84.1157862,77 82.3513343,77 L68.6278199,77 C66.8633681,77 65.4197257,78.4727273 65.4197257,80.2727273 L65.4197257,82.6745455 C65.0319027,82.6512727 64.6422975,82.6363636 64.2487713,82.6363636 C60.8467655,82.6363636 57.6458003,83.5130909 54.849768,85.056 L43.277459,85.056 C40.9248566,85.056 39,87.0196364 39,89.4196364 L39,115.909091 C39,118.309091 40.9248566,120.272727 43.277459,120.272727 L54.3222147,120.272727 C57.2405111,122.003636 60.6296845,123 64.2487713,123 C67.867858,123 71.2570314,122.003636 74.1756843,120.272727 L86.722541,120.272727 C89.0751434,120.272727 91,118.309091 91,115.909091 L91,89.4196364 C91,87.0196364 89.0751434,85.056 86.722541,85.056 L86.722541,85.056 Z" id="Shape" opacity="0.049999997" transform="translate(65.000000, 100.000000) rotate(-14.000000) translate(-65.000000, -100.000000) "></path>
            <path d="M135.919987,73.6465133 C135.919987,74.5653371 135.157801,75.317102 134.226239,75.317102 L110.372622,75.317102 C109.441061,75.317102 108.678874,74.5653371 108.678874,73.6465133 L108.678874,34.4208105 C108.678874,33.5019866 109.441061,32.7502217 110.372622,32.7502217 L134.226239,32.7502217 C135.157801,32.7502217 135.919987,33.5019866 135.919987,34.4208105 L135.919987,73.6465133 L135.919987,73.6465133 Z M122.161955,82.5894534 C120.654801,82.5894534 119.433044,81.384402 119.433044,79.8978564 C119.433044,78.4115893 120.654801,77.2065379 122.161955,77.2065379 C123.669108,77.2065379 124.890865,78.4115893 124.890865,79.8978564 C124.890865,81.384402 123.669108,82.5894534 122.161955,82.5894534 L122.161955,82.5894534 Z M135.348065,30.0586248 L109.250796,30.0586248 C107.387673,30.0586248 105.8633,31.5621547 105.8633,33.3998023 L105.8633,81.0422097 C105.8633,82.8798574 107.387673,84.3833873 109.250796,84.3833873 L135.348065,84.3833873 C137.211188,84.3833873 138.735561,82.8798574 138.735561,81.0422097 L138.735561,33.3998023 C138.735561,31.5621547 137.211188,30.0586248 135.348065,30.0586248 L135.348065,30.0586248 Z" id="Shape" opacity="0.049999997" transform="translate(122.299431, 57.221006) rotate(-25.000000) translate(-122.299431, -57.221006) "></path>
            <g id="Group" transform="translate(204.000000, 66.500000) rotate(-16.000000) translate(-204.000000, -66.500000) translate(181.000000, 48.000000)" opacity="0.049999997">
                <path d="M15.8246098,19.8579382 L30.6901523,19.8579382 L30.6901523,28.3684832 L15.8246098,28.3684832 L15.8246098,19.8579382 Z M43.8578261,19.9946268 L31.7123049,19.9946268 L31.7123049,28.4984494 L43.8578261,28.4984494 L43.8578261,29.7308874 L2.4128001,29.7308874 L2.4128001,28.4984494 L14.5583213,28.4984494 L14.5583213,19.9946268 L2.4128001,19.9946268 L2.4128001,18.7621887 L43.8578261,18.7621887 L43.8578261,19.9946268 L43.8578261,19.9946268 Z M0.479533629,10.8745852 L0.479533629,33.9211768 C0.479533629,35.547995 1.83181846,36.8790281 3.48461104,36.8790281 L42.5506174,36.8790281 C44.20341,36.8790281 45.5556948,35.547995 45.5556948,33.9211768 L45.5556948,10.8745852 L0.479533629,10.8745852 L0.479533629,10.8745852 Z" id="Shape"></path>
                <path d="M8.10153262,3.30965637 L3.83626904,3.74794642 L6.56812198,10.4017772 L12.947408,9.74600324 L10.8333856,9.96348711 L8.10153262,3.30965637 Z M0.0145030271,7.18216769 L0.38932035,10.8745852 L2.87720178,10.6304196 L0.542769053,5.20088858 C0.14782731,5.76096048 -0.0584479955,6.45437107 0.0145030271,7.18216769 Z M40.8292277,0.0735996273 L41.5740352,-1.13686838e-13 L36.4445558,0.507356881 L39.2528884,7.09212079 L43.6375603,6.65861645 L40.8292277,0.0735996273 Z M32.7370226,0.945616105 L20.1960007,2.17859258 L22.9730854,8.64942014 L19.1013097,9.02992548 L16.324225,2.55934645 L11.9883407,2.98558202 L14.7654254,9.45616105 L27.3089697,8.22318458 L24.531885,1.75235701 L28.4036607,1.37185167 L31.1807454,7.84267924 L36.9240895,7.27776177 L35.5141073,7.41644367 L32.7370226,0.945616105 Z" id="Combined-Shape"></path>
            </g>
            <g id="Group" transform="translate(171.390731, 13.579495) rotate(23.000000) translate(-171.390731, -13.579495) translate(152.390731, -6.920505)">
                <path d="M24.3133597,6.07280634 C24.3133597,8.87730921 22.0142041,11.1506399 19.1778422,11.1506399 C16.3414804,11.1506399 14.0423247,8.87730921 14.0423247,6.07280634 C14.0423247,3.26830347 16.3414804,0.99497277 19.1778422,0.99497277 C22.0142041,0.99497277 24.3133597,3.26830347 24.3133597,6.07280634" id="Shape" opacity="0.0700000003"></path>
                <path d="M35.6896,40.9984451 L2.22173333,40.9984451 C1.00256667,40.9984451 0.00506666667,40.018872 0.00506666667,38.8216159 L0.00506666667,35.4008841 C0.00506666667,34.203628 1.00256667,33.2240549 2.22173333,33.2240549 L35.6896,33.2240549 C36.9087667,33.2240549 37.9062667,34.203628 37.9062667,35.4008841 L37.9062667,38.8216159 C37.9062667,40.018872 36.9087667,40.9984451 35.6896,40.9984451" id="Shape" opacity="0.0700000003"></path>
                <path d="M9.39218188,24.1986846 L13.9860203,19.7044396 L18.738267,24.3536585 L23.4113095,19.7819266 L27.6883315,23.9662236 L31.2658228,20.4662916 C28.5595767,15.2157736 24.5439283,10.5609756 18.8108179,10.5609756 C13.0054734,10.5609756 8.95244066,15.6044483 6.25316456,21.1277205 L9.39218188,24.1986846 L9.39218188,24.1986846 Z" id="Shape" opacity="0.049999997"></path>
                <path d="M32.6985736,23.8780488 L28.0066537,28.5856597 L23.5350205,24.0990722 L18.9849377,28.6643718 L14.3564051,24.0203602 L9.57097311,28.8217959 L5.13542681,24.371416 C3.76098799,27.8933084 2.88235129,31.2772973 2.40506329,33.3902439 C2.42483262,33.3896142 2.44428814,33.3870954 2.46437127,33.3870954 L35.5949367,33.3870954 C35.1179625,31.219995 34.1960216,27.6020738 32.6985736,23.8780488" id="Shape" opacity="0.049999997"></path>
            </g>
            <path d="M419.910936,39.4979716 L414.788062,39.4979716 C414.211739,39.4979716 413.740201,39.0141425 413.740201,38.4227959 C413.740201,37.8314493 414.211739,37.3476202 414.788062,37.3476202 L419.910936,37.3476202 C420.487259,37.3476202 420.958796,37.8314493 420.958796,38.4227959 C420.958796,39.0141425 420.487259,39.4979716 419.910936,39.4979716 L419.910936,39.4979716 Z M419.910936,43.1614536 L414.788062,43.1614536 C414.211739,43.1614536 413.740201,42.6776245 413.740201,42.0862779 C413.740201,41.4949312 414.211739,41.0111022 414.788062,41.0111022 L419.910936,41.0111022 C420.487259,41.0111022 420.958796,41.4949312 420.958796,42.0862779 C420.958796,42.6776245 420.487259,43.1614536 419.910936,43.1614536 L419.910936,43.1614536 Z M420.958796,45.7499987 C420.958796,46.3413454 420.487259,46.8251744 419.910936,46.8251744 L414.788062,46.8251744 C414.211739,46.8251744 413.740201,46.3413454 413.740201,45.7499987 C413.740201,45.1586521 414.211739,44.6748231 414.788062,44.6748231 L419.910936,44.6748231 C420.487259,44.6748231 420.958796,45.1586521 420.958796,45.7499987 L420.958796,45.7499987 Z M417.349499,54.9487241 C415.806349,54.9487241 414.555204,53.6649643 414.555204,52.0815889 C414.555204,50.4979746 415.806349,49.2144537 417.349499,49.2144537 C418.892648,49.2144537 420.143793,50.4979746 420.143793,52.0815889 C420.143793,53.6649643 418.892648,54.9487241 417.349499,54.9487241 L417.349499,54.9487241 Z M412.063625,53.4752555 C412.063625,54.395128 411.330122,55.147751 410.433619,55.147751 L380.344421,55.147751 C379.447918,55.147751 378.714415,54.395128 378.714415,53.4752555 L378.714415,30.4590891 C378.714415,29.5392165 379.447918,28.7865936 380.344421,28.7865936 L410.433619,28.7865936 C411.330122,28.7865936 412.063625,29.5392165 412.063625,30.4590891 L412.063625,53.4752555 L412.063625,53.4752555 Z M417.349499,28.8257777 C418.892648,28.8257777 420.143793,30.1095375 420.143793,31.6929129 C420.143793,33.2765272 418.892648,34.5600481 417.349499,34.5600481 C415.806349,34.5600481 414.555204,33.2765272 414.555204,31.6929129 C414.555204,30.1095375 415.806349,28.8257777 417.349499,28.8257777 L417.349499,28.8257777 Z M420.198515,25.9433512 L402.089622,25.9433512 L408.821544,19.0359447 C409.244181,18.6022905 409.244181,17.8926746 408.821544,17.4590204 C408.398907,17.0253662 407.707319,17.0253662 407.284682,17.4590204 L399.023582,25.9354666 L390.684941,17.3794574 C390.262304,16.9458032 389.570716,16.9458032 389.148079,17.3794574 C388.725442,17.8131116 388.725442,18.5227275 389.148079,18.9561428 L395.957542,25.9433512 L378.804764,25.9433512 C377.267902,25.9433512 376.010469,27.233562 376.010469,28.8104864 L376.010469,55.0925587 C376.010469,56.669483 377.267902,57.9596938 378.804764,57.9596938 L420.198515,57.9596938 C421.735377,57.9596938 422.99281,56.669483 422.99281,55.0925587 L422.99281,28.8104864 C422.99281,27.233562 421.735377,25.9433512 420.198515,25.9433512 L420.198515,25.9433512 Z" id="Shape" opacity="0.0700000003" transform="translate(399.501640, 37.506955) rotate(12.000000) translate(-399.501640, -37.506955) "></path>
            <g id="Group" transform="translate(465.000000, 72.500000) rotate(24.000000) translate(-465.000000, -72.500000) translate(441.000000, 52.000000)">
                <path d="M47.2359861,33.4944292 C45.6670572,28.4892226 44.0981284,24.8647626 42.0062233,20.0321493 C41.3828356,18.5923758 40.7751371,17.5222971 40.1552359,16.7266418 C38.9855123,19.4080518 36.8754773,24.2527466 35.9749122,26.3604564 C34.6964095,29.3521892 32.7206051,29.237242 31.209901,29.237242 L25.9975707,29.237242 L25.9975707,31.7684958 C25.9975707,32.1482012 25.683785,32.4588692 25.300269,32.4588692 L23.5570148,32.4588692 C23.1734988,32.4588692 22.8597131,32.1482012 22.8597131,31.7684958 L22.8597131,29.237242 L17.7286185,29.237242 C16.2179143,29.237242 14.2421099,29.3521892 12.9639559,26.3604564 C11.9821551,24.0632392 9.56251818,18.5119473 8.49181141,16.0580153 C9.78007631,14.7670172 11.1548066,14.5091627 12.8530849,14.5091627 L12.7715006,14.5091627 C9.98229381,14.5091627 8.06471412,15.1995361 5.972809,20.0321493 C3.88090389,24.8647626 2.31197505,28.4892226 0.743046213,33.4944292 C-0.303254996,36.832039 0.568720786,40.9159424 4.92685644,40.9159424 L43.0521758,40.9159424 C47.4103115,40.9159424 48.2822873,36.832039 47.2359861,33.4944292" id="Shape" opacity="0.049999997"></path>
                <path d="M35.0503964,14.8144403 L24.0532481,14.8144403 L23.8291688,14.8144403 L12.8320205,14.8144403 C11.1502174,14.8144403 9.78882353,15.0621934 8.51305627,16.3026171 C9.57337596,18.6604172 11.9695396,23.9942392 12.9418159,26.2014638 C14.2079156,29.0759965 16.1642072,28.9655524 17.660601,28.9655524 L22.7415729,28.9655524 L22.7415729,27.0860119 C22.7415729,26.7211814 23.0523146,26.4226837 23.43211,26.4226837 L25.1584527,26.4226837 C25.5382481,26.4226837 25.8489898,26.7211814 25.8489898,27.0860119 L25.8489898,28.9655524 L31.0107545,28.9655524 C32.5071483,28.9655524 34.4634399,29.0759965 35.7295396,26.2014638 C36.6286189,24.1600713 38.7461509,19.4434761 39.898312,16.880376 C38.4671739,15.1351595 36.9662916,14.8144403 35.0503964,14.8144403" id="Shape" opacity="0.0199999996"></path>
                <path d="M23.4535671,2.77887568 C30.7229232,2.77887568 33.5598303,11.4434101 34.4679759,15.3418253 L34.8144683,15.3418253 C35.7683705,15.3418253 36.6199316,15.4241495 37.4117647,15.7246154 C37.1190624,14.2274961 36.4470347,11.4340314 35.1075199,8.6120831 C32.4337297,2.97791265 28.4036591,-3.69482223e-13 23.4535671,-3.69482223e-13 C18.5111593,-3.69482223e-13 14.4283464,3.00292253 11.6469759,8.68363915 C10.2145508,11.6094479 9.48558937,14.5050363 9.17647059,15.9830508 C10.088109,15.4894531 11.0717006,15.3532881 12.1957054,15.3432147 C13.223307,11.3145397 16.251274,2.77887568 23.4535671,2.77887568 Z" id="Shape" opacity="0.049999997"></path>
            </g>
            <g id="Group-3" transform="translate(505.000000, 89.000000)">
                <path d="M27.2622333,15.4291859 C27.738579,12.715603 30.6658883,11.1718047 34.3712742,11.3338673 C40.6337814,11.6076507 44.7168869,5.6856383 40.6133218,0.782732079 L37.6719931,3.1795936 C39.4483946,5.30202366 37.7844707,7.7153284 34.5401602,7.57349411 C29.1363798,7.33714873 24.3699516,9.85085774 23.5034946,14.786775 L27.2622333,15.4291859 L27.2622333,15.4291859 Z" id="Shape" opacity="0.0399999991" transform="translate(32.885095, 8.105959) rotate(1.000000) translate(-32.885095, -8.105959) "></path>
                <path d="M7.60966222,46.833893 L7.80955107,46.9355264 L24.6889768,14.0794002 L24.4894374,13.9774188 C18.6514248,11.0022057 11.4306146,13.3255032 8.44311488,19.1401862 L2.4265302,30.8516942 C-0.560969498,36.6667253 1.77164958,43.8586799 7.60966222,46.833893" id="Shape" opacity="0.0399999991" transform="translate(12.906962, 29.808395) rotate(1.000000) translate(-12.906962, -29.808395) "></path>
                <path d="M25.1484943,14.3382997 L24.9484551,14.2384963 L19.1049275,25.3798999 L8.25341281,19.9628338 L7.53698512,21.3289776 L18.3881495,26.7460437 L8.02639807,46.5030058 L8.22643729,46.6031509 C14.0790735,49.5247915 21.3179709,47.2433279 24.3129539,41.5333458 L30.3446094,30.0323767 C33.3395925,24.3223945 31.0011305,17.2599403 25.1484943,14.3382997" id="Shape" opacity="0.0700000003" transform="translate(19.593219, 31.057231) rotate(1.000000) translate(-19.593219, -31.057231) "></path>
            </g>
            <g id="Group-2" transform="translate(529.000000, 10.000000)">
                <path d="M48.1614738,53.5640157 C47.2529713,53.5640157 46.5155504,52.8257933 46.5155504,51.9153485 C46.5155504,51.0046083 47.2529713,50.2666812 48.1614738,50.2666812 C49.0699764,50.2666812 49.8073973,51.0046083 49.8073973,51.9153485 C49.8073973,52.8257933 49.0699764,53.5640157 48.1614738,53.5640157 L48.1614738,53.5640157 Z M44.5805579,47.4195472 C43.6720553,47.4195472 42.9346344,46.6813248 42.9346344,45.77088 C42.9346344,44.8601398 43.6720553,44.1222128 44.5805579,44.1222128 C45.4890604,44.1222128 46.2264814,44.8601398 46.2264814,45.77088 C46.2264814,46.6813248 45.4890604,47.4195472 44.5805579,47.4195472 L44.5805579,47.4195472 Z M44.5805579,59.2751219 C43.6720553,59.2751219 42.9346344,58.5371948 42.9346344,57.6264546 C42.9346344,56.7160098 43.6720553,55.9777874 44.5805579,55.9777874 C45.4890604,55.9777874 46.2264814,56.7160098 46.2264814,57.6264546 C46.2264814,58.5371948 45.4890604,59.2751219 44.5805579,59.2751219 L44.5805579,59.2751219 Z M40.9996419,17.9969963 C40.0911394,17.9969963 39.3537184,17.2587739 39.3537184,16.3483291 C39.3537184,15.4375889 40.0911394,14.6996619 40.9996419,14.6996619 C41.9110942,14.6996619 42.6485151,15.4375889 42.6485151,16.3483291 C42.6485151,17.2587739 41.9110942,17.9969963 40.9996419,17.9969963 L40.9996419,17.9969963 Z M40.9996419,29.852571 C40.0911394,29.852571 39.3537184,29.114644 39.3537184,28.2039038 C39.3537184,27.293459 40.0911394,26.5552365 40.9996419,26.5552365 C41.9110942,26.5552365 42.6485151,27.293459 42.6485151,28.2039038 C42.6485151,29.114644 41.9110942,29.852571 40.9996419,29.852571 L40.9996419,29.852571 Z M40.9996419,41.708441 C40.0911394,41.708441 39.3537184,40.9702186 39.3537184,40.0594784 C39.3537184,39.1490336 40.0911394,38.4108112 40.9996419,38.4108112 C41.9110942,38.4108112 42.6485151,39.1490336 42.6485151,40.0594784 C42.6485151,40.9702186 41.9110942,41.708441 40.9996419,41.708441 L40.9996419,41.708441 Z M40.9996419,53.5640157 C40.0911394,53.5640157 39.3537184,52.8257933 39.3537184,51.9153485 C39.3537184,51.0046083 40.0911394,50.2666812 40.9996419,50.2666812 C41.9110942,50.2666812 42.6485151,51.0046083 42.6485151,51.9153485 C42.6485151,52.8257933 41.9110942,53.5640157 40.9996419,53.5640157 L40.9996419,53.5640157 Z M40.9996419,65.4195903 C40.0911394,65.4195903 39.3537184,64.6816633 39.3537184,63.7709231 C39.3537184,62.8604783 40.0911394,62.1222559 40.9996419,62.1222559 C41.9110942,62.1222559 42.6485151,62.8604783 42.6485151,63.7709231 C42.6485151,64.6816633 41.9110942,65.4195903 40.9996419,65.4195903 L40.9996419,65.4195903 Z M37.4216756,23.7081025 C36.5102234,23.7081025 35.7757522,22.9701755 35.7757522,22.0594353 C35.7757522,21.1489905 36.5102234,20.4107681 37.4216756,20.4107681 C38.3301782,20.4107681 39.0675991,21.1489905 39.0675991,22.0594353 C39.0675991,22.9701755 38.3301782,23.7081025 37.4216756,23.7081025 L37.4216756,23.7081025 Z M37.4216756,35.5639726 C36.5102234,35.5639726 35.7757522,34.8257501 35.7757522,33.9150099 C35.7757522,33.0045651 36.5102234,32.2663427 37.4216756,32.2663427 C38.3301782,32.2663427 39.0675991,33.0045651 39.0675991,33.9150099 C39.0675991,34.8257501 38.3301782,35.5639726 37.4216756,35.5639726 L37.4216756,35.5639726 Z M37.4216756,47.4195472 C36.5102234,47.4195472 35.7757522,46.6813248 35.7757522,45.77088 C35.7757522,44.8601398 36.5102234,44.1222128 37.4216756,44.1222128 C38.3301782,44.1222128 39.0675991,44.8601398 39.0675991,45.77088 C39.0675991,46.6813248 38.3301782,47.4195472 37.4216756,47.4195472 L37.4216756,47.4195472 Z M37.4216756,59.2751219 C36.5102234,59.2751219 35.7757522,58.5371948 35.7757522,57.6264546 C35.7757522,56.7160098 36.5102234,55.9777874 37.4216756,55.9777874 C38.3301782,55.9777874 39.0675991,56.7160098 39.0675991,57.6264546 C39.0675991,58.5371948 38.3301782,59.2751219 37.4216756,59.2751219 L37.4216756,59.2751219 Z M33.8407597,17.9969963 C32.9322571,17.9969963 32.1948362,17.2587739 32.1948362,16.3483291 C32.1948362,15.4375889 32.9322571,14.6996619 33.8407597,14.6996619 C34.7492623,14.6996619 35.4866832,15.4375889 35.4866832,16.3483291 C35.4866832,17.2587739 34.7492623,17.9969963 33.8407597,17.9969963 L33.8407597,17.9969963 Z M33.8407597,29.852571 C32.9322571,29.852571 32.1948362,29.114644 32.1948362,28.2039038 C32.1948362,27.293459 32.9322571,26.5552365 33.8407597,26.5552365 C34.7492623,26.5552365 35.4866832,27.293459 35.4866832,28.2039038 C35.4866832,29.114644 34.7492623,29.852571 33.8407597,29.852571 L33.8407597,29.852571 Z M33.8407597,41.708441 C32.9322571,41.708441 32.1948362,40.9702186 32.1948362,40.0594784 C32.1948362,39.1490336 32.9322571,38.4108112 33.8407597,38.4108112 C34.7492623,38.4108112 35.4866832,39.1490336 35.4866832,40.0594784 C35.4866832,40.9702186 34.7492623,41.708441 33.8407597,41.708441 L33.8407597,41.708441 Z M33.8407597,53.5640157 C32.9322571,53.5640157 32.1948362,52.8257933 32.1948362,51.9153485 C32.1948362,51.0046083 32.9322571,50.2666812 33.8407597,50.2666812 C34.7492623,50.2666812 35.4866832,51.0046083 35.4866832,51.9153485 C35.4866832,52.8257933 34.7492623,53.5640157 33.8407597,53.5640157 L33.8407597,53.5640157 Z M33.8407597,65.4195903 C32.9322571,65.4195903 32.1948362,64.6816633 32.1948362,63.7709231 C32.1948362,62.8604783 32.9322571,62.1222559 33.8407597,62.1222559 C34.7492623,62.1222559 35.4866832,62.8604783 35.4866832,63.7709231 C35.4866832,64.6816633 34.7492623,65.4195903 33.8407597,65.4195903 L33.8407597,65.4195903 Z M30.2598437,23.7081025 C29.3513412,23.7081025 28.6139202,22.9701755 28.6139202,22.0594353 C28.6139202,21.1489905 29.3513412,20.4107681 30.2598437,20.4107681 C31.1683463,20.4107681 31.9057672,21.1489905 31.9057672,22.0594353 C31.9057672,22.9701755 31.1683463,23.7081025 30.2598437,23.7081025 L30.2598437,23.7081025 Z M30.2598437,35.5639726 C29.3513412,35.5639726 28.6139202,34.8257501 28.6139202,33.9150099 C28.6139202,33.0045651 29.3513412,32.2663427 30.2598437,32.2663427 C31.1683463,32.2663427 31.9057672,33.0045651 31.9057672,33.9150099 C31.9057672,34.8257501 31.1683463,35.5639726 30.2598437,35.5639726 L30.2598437,35.5639726 Z M30.2598437,47.4195472 C29.3513412,47.4195472 28.6139202,46.6813248 28.6139202,45.77088 C28.6139202,44.8601398 29.3513412,44.1222128 30.2598437,44.1222128 C31.1683463,44.1222128 31.9057672,44.8601398 31.9057672,45.77088 C31.9057672,46.6813248 31.1683463,47.4195472 30.2598437,47.4195472 L30.2598437,47.4195472 Z M30.2598437,59.2751219 C29.3513412,59.2751219 28.6139202,58.5371948 28.6139202,57.6264546 C28.6139202,56.7160098 29.3513412,55.9777874 30.2598437,55.9777874 C31.1683463,55.9777874 31.9057672,56.7160098 31.9057672,57.6264546 C31.9057672,58.5371948 31.1683463,59.2751219 30.2598437,59.2751219 L30.2598437,59.2751219 Z M26.6818775,17.9969963 C25.7704252,17.9969963 25.0330043,17.2587739 25.0330043,16.3483291 C25.0330043,15.4375889 25.7704252,14.6996619 26.6818775,14.6996619 C27.59038,14.6996619 28.3278009,15.4375889 28.3278009,16.3483291 C28.3278009,17.2587739 27.59038,17.9969963 26.6818775,17.9969963 L26.6818775,17.9969963 Z M26.6818775,29.852571 C25.7704252,29.852571 25.0330043,29.114644 25.0330043,28.2039038 C25.0330043,27.293459 25.7704252,26.5552365 26.6818775,26.5552365 C27.59038,26.5552365 28.3278009,27.293459 28.3278009,28.2039038 C28.3278009,29.114644 27.59038,29.852571 26.6818775,29.852571 L26.6818775,29.852571 Z M26.6818775,41.708441 C25.7704252,41.708441 25.0330043,40.9702186 25.0330043,40.0594784 C25.0330043,39.1490336 25.7704252,38.4108112 26.6818775,38.4108112 C27.59038,38.4108112 28.3278009,39.1490336 28.3278009,40.0594784 C28.3278009,40.9702186 27.59038,41.708441 26.6818775,41.708441 L26.6818775,41.708441 Z M26.6818775,53.5640157 C25.7704252,53.5640157 25.0330043,52.8257933 25.0330043,51.9153485 C25.0330043,51.0046083 25.7704252,50.2666812 26.6818775,50.2666812 C27.59038,50.2666812 28.3278009,51.0046083 28.3278009,51.9153485 C28.3278009,52.8257933 27.59038,53.5640157 26.6818775,53.5640157 L26.6818775,53.5640157 Z M26.6818775,65.4195903 C25.7704252,65.4195903 25.0330043,64.6816633 25.0330043,63.7709231 C25.0330043,62.8604783 25.7704252,62.1222559 26.6818775,62.1222559 C27.59038,62.1222559 28.3278009,62.8604783 28.3278009,63.7709231 C28.3278009,64.6816633 27.59038,65.4195903 26.6818775,65.4195903 L26.6818775,65.4195903 Z M23.1009615,47.4195472 C22.1924589,47.4195472 21.455038,46.6813248 21.455038,45.77088 C21.455038,44.8601398 22.1924589,44.1222128 23.1009615,44.1222128 C24.0094641,44.1222128 24.746885,44.8601398 24.746885,45.77088 C24.746885,46.6813248 24.0094641,47.4195472 23.1009615,47.4195472 L23.1009615,47.4195472 Z M23.1009615,59.2751219 C22.1924589,59.2751219 21.455038,58.5371948 21.455038,57.6264546 C21.455038,56.7160098 22.1924589,55.9777874 23.1009615,55.9777874 C24.0094641,55.9777874 24.746885,56.7160098 24.746885,57.6264546 C24.746885,58.5371948 24.0094641,59.2751219 23.1009615,59.2751219 L23.1009615,59.2751219 Z M19.5200455,53.5640157 C18.611543,53.5640157 17.8741221,52.8257933 17.8741221,51.9153485 C17.8741221,51.0046083 18.611543,50.2666812 19.5200455,50.2666812 C20.4285481,50.2666812 21.165969,51.0046083 21.165969,51.9153485 C21.165969,52.8257933 20.4285481,53.5640157 19.5200455,53.5640157 L19.5200455,53.5640157 Z M53.2437788,58.2988013 C52.9871563,58.873959 52.411968,59.2751219 51.7394401,59.2751219 C50.8309375,59.2751219 50.0935166,58.5371948 50.0935166,57.6264546 C50.0935166,56.7160098 50.8309375,55.9777874 51.7394401,55.9777874 C52.0049116,55.9777874 52.2526851,56.0412999 52.4739113,56.1511914 L47.1703801,41.3740402 C46.7721728,41.0730203 46.5155504,40.5971194 46.5155504,40.0594784 C46.5155504,39.9277268 46.5332485,39.8001109 46.5597956,39.6772216 L45.0584066,35.4924841 C44.9079728,35.5385676 44.7486898,35.5639726 44.5805579,35.5639726 C43.6720553,35.5639726 42.9346344,34.8257501 42.9346344,33.9150099 C42.9346344,33.22937 43.3534895,32.6418052 43.9463759,32.3933678 L43.610112,31.4569272 L45.1527965,23.6044146 C44.9728658,23.6702904 44.7811364,23.7081025 44.5805579,23.7081025 C43.6720553,23.7081025 42.9346344,22.9701755 42.9346344,22.0594353 C42.9346344,21.1519446 43.6661559,20.41579 44.5717088,20.4110635 C43.7280993,17.8070496 43.8667344,14.4724938 44.2147971,11.8102847 C43.4832756,11.6433796 42.9346344,10.9881666 42.9346344,10.2038607 C42.9346344,9.29312045 43.6720553,8.55519342 44.5805579,8.55519342 C44.6484006,8.55519342 44.7132936,8.56021534 44.7781867,8.56789592 C44.9551677,7.7472549 45.0908532,7.25303876 45.0908532,7.25303876 L42.294553,6.63032051 C41.6928176,8.37145018 39.5365988,12.2191281 37.2181475,12.6654883 C36.4984247,12.8037389 35.6577648,12.2675749 35.0265325,11.734365 C34.8200547,12.1671365 34.3835015,12.4687472 33.8732062,12.4687472 C33.4042065,12.4687472 32.9971502,12.2108567 32.7759239,11.831554 C31.9411634,12.361219 30.8173339,12.8264852 29.7436491,12.4687472 C28.0151345,11.8909308 26.0771923,7.85626013 25.4961046,6.56474013 L22.4018865,7.25303876 C22.4018865,7.25303876 22.5405216,7.76113903 22.723402,8.60068612 C22.844339,8.57173622 22.9711754,8.55519342 23.1009615,8.55519342 C24.0094641,8.55519342 24.746885,9.29312045 24.746885,10.2038607 C24.746885,11.0528608 24.1068036,11.7512032 23.2808922,11.8418932 C23.6289549,14.5026253 23.7646403,17.8259556 22.9180811,20.4214027 C22.9770748,20.4149038 23.0390181,20.4107681 23.1009615,20.4107681 C24.0094641,20.4107681 24.746885,21.1489905 24.746885,22.0594353 C24.746885,22.9701755 24.0094641,23.7081025 23.1009615,23.7081025 C22.8207415,23.7081025 22.55527,23.6375002 22.3251947,23.5131338 L23.8826277,31.4569272 L23.5670115,32.3345818 C24.2483884,32.5363448 24.746885,33.1670391 24.746885,33.9150099 C24.746885,34.8257501 24.0094641,35.5639726 23.1009615,35.5639726 C22.8708862,35.5639726 22.6526096,35.5170029 22.4549808,35.432221 L21.0302836,39.4036746 C21.1187741,39.6048468 21.165969,39.8264022 21.165969,40.0594784 C21.165969,40.6999211 20.8002082,41.2538095 20.2692652,41.5270611 L14.9686837,56.2983042 C15.2400546,56.0977227 15.5763185,55.9777874 15.9420793,55.9777874 C16.8505818,55.9777874 17.5880027,56.7160098 17.5880027,57.6264546 C17.5880027,58.5371948 16.8505818,59.2751219 15.9420793,59.2751219 C15.1722118,59.2751219 14.5262311,58.7457523 14.3463004,58.0311624 L12.8508108,62.1969939 C13.4908921,62.3960983 13.9598918,62.9742101 14.0011874,63.6675306 C14.965734,64.0181789 16.4081293,64.4787186 18.3490211,64.9283283 C18.0570024,64.6305579 17.8741221,64.2220098 17.8741221,63.7709231 C17.8741221,62.8604783 18.611543,62.1222559 19.5200455,62.1222559 C20.4285481,62.1222559 21.165969,62.8604783 21.165969,63.7709231 C21.165969,64.4689702 20.7323655,65.0642156 20.121781,65.304677 C23.469672,65.9575267 27.9384427,66.5049162 33.5811875,66.5255947 L33.5811875,66.5279579 C33.6372315,66.5279579 33.6903258,66.5270717 33.7463698,66.5267763 C33.8024138,66.5270717 33.8555081,66.5279579 33.9115521,66.5279579 L33.9115521,66.5255947 C39.6250893,66.5046208 44.1381053,65.943938 47.5007447,65.2801582 C46.919657,65.0252218 46.5155504,64.4459284 46.5155504,63.7709231 C46.5155504,62.8604783 47.2529713,62.1222559 48.1614738,62.1222559 C49.0699764,62.1222559 49.8073973,62.8604783 49.8073973,63.7709231 C49.8073973,64.1942415 49.6451647,64.579157 49.3855926,64.8710193 C51.3294341,64.4092979 52.7629803,63.9410776 53.6832816,63.5975191 C53.7481747,62.9960702 54.1316336,62.4915148 54.6655263,62.2593248 L53.2437788,58.2988013 L53.2437788,58.2988013 Z" id="Shape" opacity="0.0800000057" transform="translate(33.758169, 36.546349) rotate(-30.000000) translate(-33.758169, -36.546349) "></path>
                <path d="M19.7735803,17.3837143 C19.7735803,16.9384091 19.9968334,16.5463469 20.3347301,16.309476 C18.0961645,15.4424619 16.6570867,11.4341099 16.6570867,11.4341099 L12.3308022,12.2409231 C12.3308022,12.2409231 14.74435,17.9887486 16.8562044,18.6945211 C17.9543686,19.0611719 19.1038207,18.5847074 19.9576133,18.0422941 C19.8429698,17.8480781 19.7735803,17.6248205 19.7735803,17.3837143" id="Shape" opacity="0.049999997" transform="translate(16.332766, 15.128862) rotate(-30.000000) translate(-16.332766, -15.128862) "></path>
                <path d="M24.0872352,6.22375439 C24.0872352,6.22375439 22.5570028,10.711392 20.3023828,11.5048992 C20.5962107,11.7428914 20.7911263,12.1096334 20.7911263,12.5261947 C20.7911263,12.7254719 20.7445793,12.911844 20.6660312,13.0808094 C21.2885973,13.6225192 22.1177156,14.1672301 22.8275572,14.0267757 C25.3469132,13.526482 27.6742629,8.82486154 27.9651816,7.42421921 L24.0872352,6.22375439 L24.0872352,6.22375439 Z" id="Shape" opacity="0.049999997" transform="translate(24.133782, 10.136465) rotate(-30.000000) translate(-24.133782, -10.136465) "></path>
            </g>
            <path d="M319.158433,15.7356189 L344.532798,13.1546435 C344.646922,13.1427008 344.761046,13.1794302 344.849331,13.2553678 C344.937616,13.3313053 344.991448,13.4408176 345.002215,13.559794 L346.22959,26.755577 C346.251123,27.0032191 346.07886,27.2235957 345.841998,27.2477064 L320.467633,29.8284565 C320.454713,29.8300338 320.43964,29.8307098 320.42672,29.8307098 C320.327669,29.8307098 320.230771,29.7946564 320.153253,29.7279575 C320.064968,29.65202 320.008982,29.5425076 319.998216,29.4235313 L318.771917,16.2277483 C318.748877,15.9801062 318.921571,15.7597296 319.158433,15.7356189 L319.158433,15.7356189 Z M350,28.6166103 L349.98708,28.4627072 L348.195543,27.1390954 L349.547809,25.4657653 L348.064193,24.2232738 L349.321714,22.6666667 L347.840251,21.4241751 L349.160217,19.7896024 L347.659374,18.5313375 L348.916895,16.9745051 L347.357914,15.6684693 L348.649887,14.0692741 L348.643428,14.0050539 L346.873423,12.520779 L348.100799,11 L315,14.366715 L315.001723,14.3872203 L316.77388,15.6964108 L315.421829,17.3699662 L316.904585,18.6122324 L315.646633,20.1690649 L317.129388,21.4113311 L315.808776,23.0459038 L317.31048,24.3041687 L316.065878,25.8445517 L316.068678,25.8745212 L317.611294,27.1670369 L316.33547,28.7461774 L316.344729,28.847127 L318.096646,30.3147272 L316.734905,32 L350,28.6166103 L350,28.6166103 Z" id="Shape" opacity="0.0700000003" transform="translate(332.500000, 21.500000) rotate(-1.000000) translate(-332.500000, -21.500000) "></path>
            <path d="M332.486895,16.651994 C335.151488,16.651994 337.311555,18.830831 337.311555,21.5185114 C337.311555,24.2064122 335.151488,26.3852492 332.486895,26.3852492 C329.824487,26.3852492 327.66442,24.2064122 327.66442,21.5185114 C327.66442,18.830831 329.824487,16.651994 332.486895,16.651994 L332.486895,16.651994 Z M345.512821,26.2944551 L344.355252,14.2666667 L319.487179,16.7055449 L320.644748,28.7333333 L345.512821,26.2944551 L345.512821,26.2944551 Z" id="Shape" opacity="0.0700000003" transform="translate(332.500000, 21.500000) rotate(-1.000000) translate(-332.500000, -21.500000) "></path>
            <path d="M438.5965,118.662103 C437.675299,118.662103 436.930562,117.920885 436.930562,117.006488 C436.930562,116.092389 437.675299,115.351171 438.5965,115.351171 C439.51471,115.351171 440.259447,116.092389 440.259447,117.006488 C440.259447,117.920885 439.51471,118.662103 438.5965,118.662103 L438.5965,118.662103 Z M435.225743,115.30862 C434.304542,115.30862 433.559805,114.567402 433.559805,113.653302 C433.559805,112.738905 434.304542,111.997985 435.225743,111.997985 C436.143953,111.997985 436.88869,112.738905 436.88869,113.653302 C436.88869,114.567402 436.143953,115.30862 435.225743,115.30862 L435.225743,115.30862 Z M435.225743,122.015884 C434.304542,122.015884 433.559805,121.274666 433.559805,120.359971 C433.559805,119.445872 434.304542,118.704654 435.225743,118.704654 C436.143953,118.704654 436.88869,119.445872 436.88869,120.359971 C436.88869,121.274666 436.143953,122.015884 435.225743,122.015884 L435.225743,122.015884 Z M431.854986,118.662103 C430.936776,118.662103 430.189048,117.920885 430.189048,117.006488 C430.189048,116.092389 430.936776,115.351171 431.854986,115.351171 C432.773196,115.351171 433.517932,116.092389 433.517932,117.006488 C433.517932,117.920885 432.773196,118.662103 431.854986,118.662103 L431.854986,118.662103 Z M419.8716,118.236297 C419.8716,118.482675 419.669115,118.68442 419.421468,118.68442 L417.160937,118.68442 C417.273694,118.796004 415.43548,116.855626 415.43548,116.855626 L417.160937,115.026832 L419.421468,115.026832 C419.669115,115.026832 419.8716,115.228874 419.8716,115.474955 L419.8716,118.236297 L419.8716,118.236297 Z M416.776904,121.319895 C416.776904,121.565975 416.574419,121.76772 416.326772,121.76772 L413.550907,121.76772 C413.303559,121.76772 413.100775,121.565975 413.100775,121.319895 L413.100775,119.070948 C412.988317,119.18283 414.938989,117.354334 414.938989,117.354334 L416.776904,119.070948 L416.776904,121.319895 L416.776904,121.319895 Z M410.451725,118.688586 C410.204077,118.688586 410.001593,118.487139 410.001593,118.241355 L410.001593,115.479418 C410.001593,115.23304 410.204077,115.031593 410.451725,115.031593 L412.711956,115.031593 C412.599498,114.919711 414.437413,116.860089 414.437413,116.860089 L412.711956,118.688586 L410.451725,118.688586 L410.451725,118.688586 Z M413.096289,112.395821 C413.096289,112.14974 413.298773,111.947995 413.546421,111.947995 L416.321986,111.947995 C416.569634,111.947995 416.772119,112.14974 416.772119,112.395821 L416.772119,114.644767 C416.884577,114.532885 414.934204,116.361381 414.934204,116.361381 L413.096289,114.644767 L413.096289,112.395821 L413.096289,112.395821 Z M443.639177,112.808534 C440.289356,107.64173 438.111972,106.641934 433.419232,106.641934 L432.782168,106.641934 L432.782168,109.518431 L417.628417,109.518431 L417.628417,106.641934 L416.878296,106.641934 C412.18765,106.641934 410.009668,107.64173 406.659249,112.808534 C403.308531,117.975041 399.45534,129.642305 403.476022,131.808828 C408.17594,134.341645 417.045787,126.308759 417.045787,126.308759 L433.251741,126.308759 C433.251741,126.308759 442.122785,134.341645 446.821506,131.808828 C450.841291,129.642305 446.988997,117.975041 443.639177,112.808534 L443.639177,112.808534 Z" id="Shape" opacity="0.049999997" transform="translate(425.148579, 119.472333) rotate(-9.000000) translate(-425.148579, -119.472333) "></path>
            <path d="M276.14809,-1.54110881 C274.452905,-1.050948 265.903317,2.34332544 262.871031,4.79882223 C259.913259,7.19397818 258.796859,9.77229545 258.37937,11.2213673 C257.565684,10.9958378 256.67888,11.1363639 255.99969,11.6863606 L242.732147,22.4302056 C241.58519,23.3589926 241.448349,25.1079794 242.427308,26.3168938 C243.406268,27.5258083 245.145486,27.7555918 246.292443,26.8268048 L258.422656,17.0039515 L259.559986,16.0829598 L277.692379,1.39963754 C279.71426,-0.237649035 277.843275,-2.03126962 276.14809,-1.54110881 Z M277.168739,16.3824381 C280.485128,13.6968799 282.475165,11.7627491 283.233411,11.148734 C283.9913,10.5350076 283.227273,9.73219096 282.597647,10.1056011 C281.855688,10.5451123 278.733998,12.6970101 277.455171,13.5712683 C276.716783,14.0764166 275.62555,13.0976791 276.44073,12.1895223 C277.678149,10.8114829 280.041618,8.63438476 280.747548,7.9499345 C281.421569,7.29678227 280.560512,6.4288109 279.906694,6.91156584 C279.153779,7.46729089 276.564042,9.24178813 275.058508,10.3536045 C273.815986,11.2712374 273.066323,9.94312803 273.828672,9.09291425 C274.707916,8.1122596 277.540498,5.28116778 278.119396,4.70443725 C278.698592,4.12807299 278.14208,3.18207851 277.320736,3.84718934 C276.499393,4.51230018 273.704075,6.61458852 271.01938,8.78861182 C269.340688,10.1479898 268.857705,12.44456 269.68313,14.3844755 L266.684728,16.8125342 C265.805568,16.4674251 264.78331,16.5790184 264.016153,17.2002504 L251.323473,27.47858 C250.177014,28.4069638 250.019092,30.1304107 250.97295,31.3083273 C251.927105,32.4866102 253.645724,32.6904635 254.792183,31.7620796 L267.484862,21.4837501 C268.25202,20.8625181 268.573714,19.8858007 268.418934,18.9541008 L271.417337,16.5260421 C273.143245,17.7367606 275.490047,17.7418161 277.168739,16.3824381 Z" id="Combined-Shape" opacity="0.049999997"></path>
            <path d="M488.913051,19.6247195 C483.723324,22.8676207 476.816517,21.1766201 473.486444,15.8473899 C470.156509,10.5183806 471.664393,3.56929733 476.85412,0.326396123 C482.043847,-2.91650508 488.950654,-1.22550452 492.280589,4.10350474 C495.610661,9.43273498 494.102778,16.3818183 488.913051,19.6247195 M488.533241,-2.44288369 C484.461086,-4.41080061 479.563417,-4.33680359 475.519302,-1.80975965 C471.475278,0.717226945 469.261782,5.086643 469.245319,9.60923989 L457.065002,17.2203471 C455.644692,18.1078553 455.228251,20.027258 456.139579,21.4856865 L460.814411,28.9669826 C461.725738,30.4254111 463.633442,30.8925277 465.053752,30.0050195 L477.233966,22.3939767 C481.306143,24.3619153 486.203777,24.2879043 490.247869,21.7608752 C494.291961,19.2338462 496.505463,14.8643258 496.521816,10.3415903 L508.702246,2.73041306 C510.122556,1.84290485 510.538997,-0.0764978873 509.627669,-1.53492636 L504.952975,-9.01600152 C504.041648,-10.47443 502.133944,-10.9415466 500.713634,-10.0540384 L488.533241,-2.44288369 Z M484.476548,3.57875905 L484.476195,3.57867254 C484.023413,3.45264481 483.5598,3.72206315 483.446109,4.17748246 L482.255506,8.94312597 L476.127283,6.0128349 C475.701253,5.80894666 475.196296,5.99112985 475.005061,6.41726798 L475.004984,6.41762342 C474.813749,6.84376155 475.005687,7.35923067 475.431579,7.56289793 L482.382455,10.8864653 C482.455558,10.9344985 482.534459,10.9755291 482.622376,10.9998639 L482.62273,10.9999504 C482.854842,11.0644588 483.088919,11.0238876 483.278091,10.9090597 C483.319592,10.8849705 483.358193,10.8562409 483.395353,10.8247251 C483.39543,10.8243696 483.396214,10.8241872 483.396506,10.8236973 C483.48703,10.746853 483.56362,10.6510623 483.615584,10.5350174 L483.615877,10.5345275 C483.650125,10.4581281 483.668183,10.378326 483.678652,10.2983501 L485.093138,4.63542284 C485.206967,4.1802245 484.929331,3.70478678 484.476548,3.57875905 Z M476.170385,14.9677147 C475.815746,15.189318 475.343922,15.0737881 475.116371,14.7096308 C474.888821,14.3454735 474.991693,13.8705583 475.346333,13.648955 C475.700972,13.4273516 476.17292,13.5430793 476.40047,13.9072366 C476.628021,14.2713939 476.525025,14.7461114 476.170385,14.9677147 Z M487.917755,18.0145406 C487.563116,18.236144 487.091168,18.1204163 486.863618,17.756259 C486.636067,17.3921017 486.739063,16.9173842 487.093703,16.6957809 C487.448342,16.4741776 487.920166,16.5897075 488.147717,16.9538648 C488.375267,17.3180221 488.272395,17.7929373 487.917755,18.0145406 Z M478.709428,3.27813746 C478.354789,3.49974077 477.882842,3.38401307 477.655291,3.01985578 C477.42774,2.65569849 477.530736,2.18098104 477.885376,1.95937772 C478.240015,1.73777441 478.711839,1.8533043 478.93939,2.21746159 C479.166941,2.58161888 479.064068,3.05653414 478.709428,3.27813746 Z M490.521628,6.00006285 C490.166989,6.22166616 489.695165,6.10613627 489.467614,5.74197898 C489.240063,5.37782169 489.342936,4.90290643 489.697576,4.68130311 C490.052215,4.4596998 490.524163,4.5754275 490.751713,4.93958479 C490.979264,5.30374208 490.876268,5.77845953 490.521628,6.00006285 Z" id="Combined-Shape" opacity="0.0700000003"></path>
            <path d="M158.243598,125.241786 C157.356027,126.409865 155.63679,127.21263 153.658339,127.21263 C150.607745,127.21263 148.648345,125.898734 148.056527,122.88744 L147.742036,122.88744 C147.298563,122.88744 146.94722,122.540623 146.94722,122.102863 C146.94722,121.664795 147.298563,121.317978 147.742036,121.317978 L147.871643,121.317978 L147.871643,120.515213 L147.742036,120.515213 C147.298563,120.515213 146.94722,120.168088 146.94722,119.730328 C146.94722,119.29226 147.298563,118.945444 147.742036,118.945444 L148.038101,118.945444 C148.592442,115.897772 150.552467,114.419254 153.658339,114.419254 C155.895378,114.419254 157.337601,115.29539 158.095565,116.390714 C158.243598,116.609594 158.298876,116.791789 158.298876,116.992788 C158.298876,117.522108 157.855403,117.959867 157.300437,117.959867 C157.041537,117.959867 156.782948,117.868616 156.542473,117.59517 C155.802936,116.755411 155.00812,116.317651 153.658339,116.317651 C151.772642,116.317651 150.700187,117.193479 150.275141,118.945444 L153.660837,118.945444 C154.10431,118.945444 154.455653,119.29226 154.455653,119.730328 C154.455653,120.168088 154.10431,120.515213 153.660837,120.515213 L150.090256,120.515213 L150.090256,121.317978 L153.660837,121.317978 C154.10431,121.317978 154.455653,121.664795 154.455653,122.102863 C154.455653,122.540623 154.10431,122.88744 153.660837,122.88744 L150.311993,122.88744 C150.75609,124.603027 151.809494,125.314849 153.658339,125.314849 C155.026546,125.314849 155.747658,125.004409 156.635228,124.110393 C156.930981,123.81845 157.171143,123.708702 157.430044,123.708702 C157.984697,123.708702 158.428482,124.14677 158.428482,124.694278 C158.428482,124.913158 158.354466,125.095661 158.243598,125.241786 M153,104.305769 C154.2995,104.305769 155.353217,105.345602 155.353217,106.628362 C155.353217,107.911121 154.2995,108.951263 153,108.951263 C151.7005,108.951263 150.647096,107.911121 150.647096,106.628362 C150.647096,105.345602 151.7005,104.305769 153,104.305769 M152.875703,100 C149.546846,100 142,106.345051 142,111.198328 L142,130.620683 C142,131.74252 142.929731,132.660274 144.066209,132.660274 C144.066209,132.660274 147.74391,133 152.450031,133 C157.156152,133 161.934104,132.660274 161.934104,132.660274 C163.070269,132.660274 164,131.74252 164,130.620683 L164,120.961605 L164,111.198328 C164,106.458499 156.20456,100 152.875703,100" id="Shape" opacity="0.049999997" transform="translate(153.000000, 116.500000) rotate(-330.000000) translate(-153.000000, -116.500000) "></path>
            <path d="M86.2053094,16.7186972 C85.1563627,18.099154 83.124536,19.0478765 80.7863667,19.0478765 C77.18112,19.0478765 74.865465,17.4950903 74.1660442,13.9362879 L73.7943731,13.9362879 C73.2702688,13.9362879 72.8550454,13.5264136 72.8550454,13.0090611 C72.8550454,12.4913442 73.2702688,12.0814699 73.7943731,12.0814699 L73.9475444,12.0814699 L73.9475444,11.1327474 L73.7943731,11.1327474 C73.2702688,11.1327474 72.8550454,10.7225087 72.8550454,10.2051562 C72.8550454,9.68743932 73.2702688,9.27756497 73.7943731,9.27756497 L74.144268,9.27756497 C74.7993983,5.67577133 77.1157915,3.92843143 80.7863667,3.92843143 C83.4301405,3.92843143 85.1345866,4.96386512 86.0303619,6.25833941 C86.2053094,6.51701567 86.2706379,6.73233633 86.2706379,6.96988129 C86.2706379,7.59544063 85.7465336,8.11279315 85.0906652,8.11279315 C84.7846916,8.11279315 84.4790872,8.00495065 84.1948898,7.68178749 C83.3208906,6.68934506 82.3815629,6.17199255 80.7863667,6.17199255 C78.5578164,6.17199255 77.2903699,7.20706191 76.7880418,9.27756497 L80.7893194,9.27756497 C81.3134237,9.27756497 81.7286471,9.68743932 81.7286471,10.2051562 C81.7286471,10.7225087 81.3134237,11.1327474 80.7893194,11.1327474 L76.569542,11.1327474 L76.569542,12.0814699 L80.7893194,12.0814699 C81.3134237,12.0814699 81.7286471,12.4913442 81.7286471,13.0090611 C81.7286471,13.5264136 81.3134237,13.9362879 80.7893194,13.9362879 L76.8315941,13.9362879 C77.3564365,15.9637997 78.6013687,16.8050441 80.7863667,16.8050441 C82.4033391,16.8050441 83.2555621,16.438161 84.3045088,15.381596 C84.6540346,15.0365729 84.9378629,14.9068704 85.2438365,14.9068704 C85.8993359,14.9068704 86.4238092,15.4245873 86.4238092,16.0716422 C86.4238092,16.3303185 86.3363355,16.5460035 86.2053094,16.7186972 M80.0083302,-8.02386901 C81.5441033,-8.02386901 82.7894046,-6.79497462 82.7894046,-5.27898601 C82.7894046,-3.76299741 81.5441033,-2.53373869 80.0083302,-2.53373869 C78.4725572,-2.53373869 77.227625,-3.76299741 77.227625,-5.27898601 C77.227625,-6.79497462 78.4725572,-8.02386901 80.0083302,-8.02386901 M79.8614334,-13.1125046 C75.9273297,-13.1125046 67.0083302,-5.61380782 67.0083302,0.121882781 L67.0083302,23.0755752 C67.0083302,24.4013821 68.1071037,25.4860007 69.4502132,25.4860007 C69.4502132,25.4860007 73.7965876,25.8874954 79.3583672,25.8874954 C84.9201467,25.8874954 90.5668164,25.4860007 90.5668164,25.4860007 C91.9095568,25.4860007 93.0083302,24.4013821 93.0083302,23.0755752 L93.0083302,11.6603012 L93.0083302,0.121882781 C93.0083302,-5.47973336 83.7955371,-13.1125046 79.8614334,-13.1125046" id="Shape" opacity="0.049999997" transform="translate(80.008330, 6.387495) rotate(-340.000000) translate(-80.008330, -6.387495) "></path>
            <path d="M519.223255,64.9130703 C518.341604,66.0733595 516.633831,66.8707713 514.668574,66.8707713 C511.638325,66.8707713 509.691991,65.5656373 509.10412,62.5744246 L508.791726,62.5744246 C508.351211,62.5744246 508.002211,62.2299207 508.002211,61.7950802 C508.002211,61.3599334 508.351211,61.0154295 508.791726,61.0154295 L508.920469,61.0154295 L508.920469,60.2180178 L508.791726,60.2180178 C508.351211,60.2180178 508.002211,59.8732076 508.002211,59.4383671 C508.002211,59.0032204 508.351211,58.6587165 508.791726,58.6587165 L509.085817,58.6587165 C509.636461,55.6313692 511.583415,54.1627107 514.668574,54.1627107 C516.890695,54.1627107 518.323301,55.0330041 519.07621,56.1210241 C519.223255,56.3384443 519.278165,56.5194237 519.278165,56.7190829 C519.278165,57.2448724 518.837649,57.6797129 518.286385,57.6797129 C518.029211,57.6797129 517.772347,57.5890701 517.533476,57.3174479 C516.79887,56.4832891 516.009354,56.0484486 514.668574,56.0484486 C512.795453,56.0484486 511.73015,56.9184358 511.307938,58.6587165 L514.671056,58.6587165 C515.111571,58.6587165 515.460571,59.0032204 515.460571,59.4383671 C515.460571,59.8732076 515.111571,60.2180178 514.671056,60.2180178 L511.124287,60.2180178 L511.124287,61.0154295 L514.671056,61.0154295 C515.111571,61.0154295 515.460571,61.3599334 515.460571,61.7950802 C515.460571,62.2299207 515.111571,62.5744246 514.671056,62.5744246 L511.344544,62.5744246 C511.78568,64.2785706 512.832059,64.9856458 514.668574,64.9856458 C516.027657,64.9856458 516.74396,64.6772765 517.625612,63.789222 C517.919392,63.4992262 518.157953,63.3902099 518.415127,63.3902099 C518.966081,63.3902099 519.406907,63.8253566 519.406907,64.3692135 C519.406907,64.5866337 519.333384,64.7679193 519.223255,64.9130703 M514.014626,44.1166701 C515.30546,44.1166701 516.35215,45.1495694 516.35215,46.4237746 C516.35215,47.6979798 515.30546,48.7311853 514.014626,48.7311853 C512.723792,48.7311853 511.677413,47.6979798 511.677413,46.4237746 C511.677413,45.1495694 512.723792,44.1166701 514.014626,44.1166701 M513.891158,39.8396157 C510.5845,39.8396157 503.087982,46.1423532 503.087982,50.9632645 L503.087982,70.2560964 C503.087982,71.3704518 504.011514,72.2820857 505.140412,72.2820857 C505.140412,72.2820857 508.793588,72.6195464 513.468325,72.6195464 C518.143062,72.6195464 522.88915,72.2820857 522.88915,72.2820857 C524.017738,72.2820857 524.94127,71.3704518 524.94127,70.2560964 L524.94127,60.6614326 L524.94127,50.9632645 C524.94127,46.2550442 517.197815,39.8396157 513.891158,39.8396157" id="Shape" opacity="0.049999997" transform="translate(514.014626, 56.229581) rotate(-15.000000) translate(-514.014626, -56.229581) "></path>
            <path d="M49.9444291,55.2384001 C49.9444291,56.0285823 49.2999339,56.675095 48.5122175,56.675095 L14.3437406,56.675095 C13.5560242,56.675095 12.911529,56.0285823 12.911529,55.2384001 L12.911529,33.849502 C12.911529,33.0593198 13.5560242,32.4128071 14.3437406,32.4128071 L48.5122175,32.4128071 C49.2999339,32.4128071 49.9444291,33.0593198 49.9444291,33.849502 L49.9444291,55.2384001 L49.9444291,55.2384001 Z M49.705659,30.3776261 L13.1502991,30.3776261 C11.7999282,30.3776261 10.6950792,31.4859336 10.6950792,32.8405317 L10.6950792,56.2381346 C10.6950792,57.5927326 11.7999282,58.7010401 13.1502991,58.7010401 L28.8362899,58.7010401 L28.8362899,61.5356392 L20.2771887,61.5356392 C18.9268178,61.5356392 17.8219688,62.6439467 17.8219688,63.9985447 L45.0339893,63.9985447 C45.0339893,62.6439467 43.9291404,61.5356392 42.5787694,61.5356392 L34.0196683,61.5356392 L34.0196683,58.7010401 L49.705659,58.7010401 C51.0560299,58.7010401 52.1608789,57.5927326 52.1608789,56.2381346 L52.1608789,32.8405317 C52.1608789,31.4859336 51.0560299,30.3776261 49.705659,30.3776261 L49.705659,30.3776261 Z" id="Shape" opacity="0.0800000057" transform="translate(31.427979, 47.188085) rotate(-9.000000) translate(-31.427979, -47.188085) "></path>
        </g>
    </g>
</svg>